<svg width="220" height="43" viewBox="0 0 220 43" fill="none" xmlns="http://www.w3.org/2000/svg">
<g clip-path="url(#clip0_7715_2046)">
<path d="M14.0809 13.0127C13.4206 12.9911 12.7815 13.1641 12.2063 13.5099C11.269 14.0935 10.14 14.9798 9.11747 16.2767C6.43335 19.692 6.45466 23.5613 6.49726 24.7285C6.53987 25.6364 6.92331 30.6081 11.0773 34.1963C14.3153 36.9847 17.8941 37.2873 19.0657 37.3306C19.9178 37.3738 24.3701 37.4603 28.1193 33.9801C32.0176 30.3703 32.2094 25.6148 32.2307 24.7934C32.2733 24.1017 32.2946 23.1938 32.1242 22.1346C31.975 21.1835 31.7194 20.3838 31.4851 19.7569C30.846 19.411 29.93 18.849 29.0353 17.9195C28.098 16.9468 27.5441 15.9525 27.2246 15.2608C27.1607 14.9798 27.0542 14.5907 26.7985 14.18C26.3725 13.4883 25.8186 13.1424 25.5204 12.9911C26.0743 12.9047 27.2885 12.8182 28.6092 13.4234C29.3122 13.7477 29.8235 14.18 30.1643 14.5042C30.2282 14.3313 30.3348 13.9638 30.2708 13.5315C30.2069 13.0127 29.9726 12.6453 29.8448 12.494C30.2708 12.7101 31.762 13.5099 32.5076 15.304C32.9976 16.5145 32.955 17.5953 32.891 18.1141C33.4023 18.9139 34.0414 20.1027 34.4887 21.6375C34.9148 23.0641 35.0213 24.3395 35.0213 25.2689C35.0639 26.3281 35.213 32.0779 30.8673 36.747C25.6482 42.3455 18.4267 41.5457 17.6598 41.4376C18.1071 41.697 18.6823 41.9564 19.364 42.1509C21.0682 42.6265 22.538 42.3671 23.3688 42.1509C21.5581 42.6697 18.1284 43.3398 14.2514 42.1293C5.32562 39.3192 2.81193 29.203 2.64151 28.5329C2.79063 29.6786 3.02495 30.9107 3.34449 32.2076C3.83445 34.3044 4.47352 36.1417 5.1126 37.7197C4.09008 36.5956 2.72672 34.8015 1.64029 32.3157C0.362142 29.3976 0.0639075 26.8037 0 25.1609C0.0213025 23.3667 0.298235 20.2324 1.91722 16.8388C4.21789 11.9968 7.88192 9.48936 9.47961 8.51665C9.35179 8.51665 9.18137 8.47342 8.98965 8.38695C8.60621 8.21402 8.39318 7.93302 8.30797 7.80332C8.90444 7.71686 9.65003 7.54393 10.4808 7.2197C11.3116 6.89546 11.972 6.50637 12.462 6.18213C11.1412 5.64174 9.62873 4.95003 8.03104 3.99893C6.49726 3.09107 5.17651 2.13997 4.11138 1.27534L6.19903 2.42098L4.60134 1.01595C5.9647 1.94543 7.6902 2.93976 9.75654 3.80439C11.1838 4.40963 12.5259 4.84195 13.7188 5.16619C13.0584 4.79872 12.2702 4.27994 11.482 3.56662C10.1613 2.39936 9.30919 1.14564 8.79793 0.216159C9.35179 0.713323 9.92696 1.18887 10.4808 1.68604L9.03226 0C10.2252 1.18887 11.9081 2.61552 14.1236 3.84762C15.3804 4.53933 16.5733 5.05811 17.6172 5.4472C18.5332 5.59851 19.4279 5.74982 20.3439 5.90113C20.6208 5.94436 21.1108 6.07406 21.5794 6.46314C21.7711 6.61445 21.9203 6.78738 22.0268 6.91707C22.1546 7.09 22.325 7.28454 22.5167 7.47909C22.8363 7.80332 23.1345 8.06271 23.4327 8.25726L27.7358 8.19241C28.0128 8.19241 28.2045 8.4518 28.1406 8.71119C27.9276 9.57582 27.4802 10.8079 26.3938 11.7806C26.1382 12.0184 25.8612 12.213 25.6056 12.3643C25.776 12.1265 26.0103 11.7806 26.1595 11.3051C26.266 10.9592 26.3299 10.6566 26.3512 10.4188C26.1808 10.5918 25.989 10.7863 25.7121 10.9592C25.3074 11.2402 24.9026 11.3916 24.6257 11.478C24.7748 11.2835 24.9239 11.0241 25.073 10.7431C25.2222 10.4621 25.3287 10.1811 25.4139 9.94329C25.1156 9.96491 24.6896 10.0081 24.1783 10.2243C23.6245 10.4405 23.241 10.7431 23.0067 10.9592C23.0067 10.7647 23.0493 10.5269 23.1345 10.2459C23.1984 10.0514 23.2836 9.87845 23.3475 9.74875C23.2197 9.66229 23.0919 9.59744 22.9428 9.51098C22.4102 9.2732 21.9203 9.2732 21.6007 9.29482C21.2812 9.29482 20.4291 9.35966 19.5983 9.96491C19.3001 10.1811 19.0657 10.4188 18.874 10.6566C18.4693 11.1754 18.4906 11.932 18.9379 12.4291V12.4507C19.1296 12.6453 19.3427 12.7966 19.5344 12.883C20.1948 13.2073 20.9617 13.1424 21.6007 12.7966C21.622 12.775 21.6433 12.775 21.6646 12.7534C21.9203 12.602 22.112 12.4291 22.2398 12.2778C22.2611 12.4291 22.2824 12.7317 22.1759 13.0992C22.0907 13.4018 21.9416 13.618 21.8351 13.7261C22.0907 13.7693 22.3889 13.7909 22.7298 13.7909C23.3262 13.7693 23.7949 13.618 24.1144 13.4883C23.9014 13.9638 23.4327 14.8933 22.4315 15.6715C21.6646 16.2767 20.8977 16.5577 20.4291 16.6658C20.5995 16.4064 20.7912 16.039 20.919 15.5634C20.9617 15.4337 20.983 15.304 21.0043 15.1959C21.0682 14.8717 20.9403 14.5475 20.6847 14.3313C20.3865 14.0719 20.0669 14.0503 19.9604 14.0287H18.1923C17.5746 14.0287 16.9781 14.1152 16.3816 14.2881C16.0621 14.3745 15.7212 14.461 15.3591 14.5259C14.4644 14.6988 13.6549 14.7852 12.9732 14.8069C13.4632 14.7204 14.3153 14.5042 15.1248 13.8558C15.423 13.618 15.6573 13.3586 15.8278 13.1424L14.0809 13.0127Z" fill="#D0221A"/>
</g>
<path d="M57.4254 23.1229C58.0694 23.1229 58.6294 22.9759 59.1054 22.6819C59.5814 22.3739 59.9384 21.9819 60.1764 21.5059C60.4284 21.0159 60.5544 20.5049 60.5544 19.9729C60.5544 19.4269 60.4354 18.9159 60.1974 18.4399C59.9734 17.9499 59.6234 17.5509 59.1474 17.2429C58.6714 16.9349 58.0904 16.7809 57.4044 16.7809H55.6194V28.4569C55.6194 29.0169 55.6894 29.4439 55.8294 29.7379C55.9694 30.0179 56.1234 30.2069 56.2914 30.3049C56.4594 30.3889 56.5434 30.4169 56.5434 30.3889H53.2044C53.2044 30.4169 53.2884 30.3819 53.4564 30.2839C53.6244 30.1859 53.7714 29.9969 53.8974 29.7169C54.0374 29.4369 54.1074 29.0169 54.1074 28.4569V17.9569C54.1074 17.3829 54.0374 16.9489 53.8974 16.6549C53.7714 16.3469 53.6244 16.1439 53.4564 16.0459C53.2884 15.9339 53.2044 15.8989 53.2044 15.9409H57.3624C58.4544 15.9409 59.3504 16.1229 60.0504 16.4869C60.7644 16.8369 61.2754 17.2989 61.5834 17.8729C61.9054 18.4329 62.0664 19.0489 62.0664 19.7209C62.0664 20.2809 61.9334 20.8339 61.6674 21.3799C61.4014 21.9119 61.0164 22.3809 60.5124 22.7869C60.0224 23.1789 59.4484 23.4519 58.7904 23.6059L58.4544 23.6689L62.1504 28.3729C62.6404 28.9189 63.0464 29.3389 63.3684 29.6329C63.6904 29.9269 63.9214 30.1229 64.0614 30.2209C64.2154 30.3189 64.3064 30.3749 64.3344 30.3889H61.8774L56.1654 23.1229H57.4254ZM69.2269 30.3889C69.2269 30.4309 69.3109 30.4029 69.4789 30.3049C69.6469 30.1929 69.7939 29.9829 69.9199 29.6749C70.0599 29.3529 70.1299 28.8909 70.1299 28.2889V17.9779C70.1299 17.4039 70.0599 16.9699 69.9199 16.6759C69.7939 16.3679 69.6469 16.1579 69.4789 16.0459C69.3109 15.9339 69.2269 15.8989 69.2269 15.9409H76.8289V18.0409C76.5769 17.2009 75.8209 16.7809 74.5609 16.7809H71.6419V22.7449H75.2539C75.5339 22.7449 75.7719 22.7029 75.9679 22.6189C76.1639 22.5209 76.3109 22.4229 76.4089 22.3249C76.5069 22.2269 76.5629 22.1639 76.5769 22.1359V24.1729C76.5629 24.1449 76.5069 24.0819 76.4089 23.9839C76.3109 23.8859 76.1639 23.7949 75.9679 23.7109C75.7859 23.6269 75.5549 23.5849 75.2749 23.5849H71.6419V29.5489H74.9179C75.5479 29.5489 76.0869 29.4229 76.5349 29.1709C76.9969 28.9049 77.3259 28.5689 77.5219 28.1629L77.1439 30.3889H69.2269ZM92.7296 29.2129C91.4136 29.9969 89.6566 30.3889 87.4586 30.3889H83.3216C83.3216 30.4309 83.4056 30.3959 83.5736 30.2839C83.7416 30.1579 83.8886 29.9339 84.0146 29.6119C84.1546 29.2899 84.2246 28.8209 84.2246 28.2049V17.8729C84.2246 17.3269 84.1546 16.9139 84.0146 16.6339C83.8886 16.3399 83.7416 16.1439 83.5736 16.0459C83.4056 15.9479 83.3216 15.9129 83.3216 15.9409H87.4376C89.5796 15.9409 91.2736 16.2909 92.5196 16.9909C93.6256 17.6069 94.4796 18.4399 95.0816 19.4899C95.6836 20.5399 95.9846 21.7229 95.9846 23.0389C95.9846 24.4669 95.6976 25.7059 95.1236 26.7559C94.5636 27.7919 93.7656 28.6109 92.7296 29.2129ZM91.9106 17.9359C91.2946 17.5299 90.6366 17.2359 89.9366 17.0539C89.2366 16.8719 88.4036 16.7809 87.4376 16.7809H85.7366V29.5489H87.4376C88.5856 29.5489 89.5236 29.4509 90.2516 29.2549C90.9936 29.0589 91.6306 28.7579 92.1626 28.3519C92.8486 27.8199 93.3736 27.1269 93.7376 26.2729C94.1156 25.4049 94.3046 24.3969 94.3046 23.2489C94.3046 22.0309 94.0876 20.9669 93.6536 20.0569C93.2336 19.1329 92.6526 18.4259 91.9106 17.9359ZM119.73 29.2129C118.414 29.9969 116.657 30.3889 114.459 30.3889H110.322C110.322 30.4309 110.406 30.3959 110.574 30.2839C110.742 30.1579 110.889 29.9339 111.015 29.6119C111.155 29.2899 111.225 28.8209 111.225 28.2049V17.8729C111.225 17.3269 111.155 16.9139 111.015 16.6339C110.889 16.3399 110.742 16.1439 110.574 16.0459C110.406 15.9479 110.322 15.9129 110.322 15.9409H114.438C116.58 15.9409 118.274 16.2909 119.52 16.9909C120.626 17.6069 121.48 18.4399 122.082 19.4899C122.684 20.5399 122.985 21.7229 122.985 23.0389C122.985 24.4669 122.698 25.7059 122.124 26.7559C121.564 27.7919 120.766 28.6109 119.73 29.2129ZM118.911 17.9359C118.295 17.5299 117.637 17.2359 116.937 17.0539C116.237 16.8719 115.404 16.7809 114.438 16.7809H112.737V29.5489H114.438C115.586 29.5489 116.524 29.4509 117.252 29.2549C117.994 29.0589 118.631 28.7579 119.163 28.3519C119.849 27.8199 120.374 27.1269 120.738 26.2729C121.116 25.4049 121.305 24.3969 121.305 23.2489C121.305 22.0309 121.088 20.9669 120.654 20.0569C120.234 19.1329 119.653 18.4259 118.911 17.9359ZM133.17 23.1229C133.814 23.1229 134.374 22.9759 134.85 22.6819C135.326 22.3739 135.683 21.9819 135.921 21.5059C136.173 21.0159 136.299 20.5049 136.299 19.9729C136.299 19.4269 136.18 18.9159 135.942 18.4399C135.718 17.9499 135.368 17.5509 134.892 17.2429C134.416 16.9349 133.835 16.7809 133.149 16.7809H131.364V28.4569C131.364 29.0169 131.434 29.4439 131.574 29.7379C131.714 30.0179 131.868 30.2069 132.036 30.3049C132.204 30.3889 132.288 30.4169 132.288 30.3889H128.949C128.949 30.4169 129.033 30.3819 129.201 30.2839C129.369 30.1859 129.516 29.9969 129.642 29.7169C129.782 29.4369 129.852 29.0169 129.852 28.4569V17.9569C129.852 17.3829 129.782 16.9489 129.642 16.6549C129.516 16.3469 129.369 16.1439 129.201 16.0459C129.033 15.9339 128.949 15.8989 128.949 15.9409H133.107C134.199 15.9409 135.095 16.1229 135.795 16.4869C136.509 16.8369 137.02 17.2989 137.328 17.8729C137.65 18.4329 137.811 19.0489 137.811 19.7209C137.811 20.2809 137.678 20.8339 137.412 21.3799C137.146 21.9119 136.761 22.3809 136.257 22.7869C135.767 23.1789 135.193 23.4519 134.535 23.6059L134.199 23.6689L137.895 28.3729C138.385 28.9189 138.791 29.3389 139.113 29.6329C139.435 29.9269 139.666 30.1229 139.806 30.2209C139.96 30.3189 140.051 30.3749 140.079 30.3889H137.622L131.91 23.1229H133.17ZM147.617 24.7819L146.273 28.1209C146.063 28.6389 145.958 29.0659 145.958 29.4019C145.958 29.8639 146.168 30.1929 146.588 30.3889H143.585C143.725 30.3889 143.928 30.2489 144.194 29.9689C144.46 29.6889 144.768 29.1359 145.118 28.3099L150.599 15.2689L156.038 28.3729C156.346 29.1289 156.64 29.6469 156.92 29.9269C157.214 30.2069 157.445 30.3609 157.613 30.3889H154.127C154.477 30.2209 154.652 29.9619 154.652 29.6119C154.652 29.3179 154.54 28.8979 154.316 28.3519L152.846 24.7819H147.617ZM152.51 23.9209L150.221 18.3139L147.974 23.9209H152.51ZM169.443 30.6199C168.113 30.6199 166.881 30.3399 165.747 29.7799C164.613 29.2199 163.703 28.3799 163.017 27.2599C162.331 26.1399 161.988 24.7749 161.988 23.1649C161.988 21.7369 162.31 20.4559 162.954 19.3219C163.612 18.1879 164.529 17.2989 165.705 16.6549C166.895 16.0109 168.26 15.6889 169.8 15.6889C170.78 15.6889 171.662 15.8009 172.446 16.0249C173.244 16.2489 173.874 16.4939 174.336 16.7599V19.0909C173.902 18.3349 173.251 17.7259 172.383 17.2639C171.529 16.8019 170.654 16.5709 169.758 16.5709C168.512 16.5709 167.427 16.8369 166.503 17.3689C165.593 17.8869 164.893 18.6289 164.403 19.5949C163.913 20.5609 163.668 21.6949 163.668 22.9969C163.668 24.4109 163.948 25.6219 164.508 26.6299C165.082 27.6379 165.838 28.3939 166.776 28.8979C167.714 29.4019 168.736 29.6539 169.842 29.6539C170.346 29.6539 170.864 29.5979 171.396 29.4859C171.942 29.3599 172.446 29.1849 172.908 28.9609V25.4959C172.908 25.0619 172.838 24.7259 172.698 24.4879C172.558 24.2359 172.404 24.0609 172.236 23.9629C172.068 23.8509 171.984 23.8089 171.984 23.8369H175.344C175.344 23.8089 175.26 23.8369 175.092 23.9209C174.924 24.0049 174.77 24.1659 174.63 24.4039C174.49 24.6279 174.42 24.9499 174.42 25.3699V29.1919C173.678 29.6539 172.873 30.0109 172.005 30.2629C171.151 30.5009 170.297 30.6199 169.443 30.6199ZM180.943 23.3329C180.943 21.8489 181.258 20.5259 181.888 19.3639C182.532 18.2019 183.428 17.2989 184.576 16.6549C185.738 16.0109 187.075 15.6889 188.587 15.6889C189.847 15.6889 191.023 15.9689 192.115 16.5289C193.221 17.0749 194.103 17.9009 194.761 19.0069C195.433 20.1129 195.769 21.4429 195.769 22.9969C195.769 24.4809 195.447 25.8039 194.803 26.9659C194.173 28.1279 193.277 29.0309 192.115 29.6749C190.967 30.3189 189.637 30.6409 188.125 30.6409C186.865 30.6409 185.682 30.3679 184.576 29.8219C183.484 29.2619 182.602 28.4289 181.93 27.3229C181.272 26.2169 180.943 24.8869 180.943 23.3329ZM194.089 23.3119C194.089 22.0379 193.823 20.8899 193.291 19.8679C192.773 18.8319 192.052 18.0269 191.128 17.4529C190.218 16.8649 189.189 16.5709 188.041 16.5709C186.991 16.5709 186.053 16.8369 185.227 17.3689C184.415 17.9009 183.778 18.6569 183.316 19.6369C182.854 20.6029 182.623 21.7299 182.623 23.0179C182.623 24.2919 182.882 25.4469 183.4 26.4829C183.932 27.5049 184.653 28.3099 185.563 28.8979C186.487 29.4719 187.523 29.7589 188.671 29.7589C189.721 29.7589 190.652 29.4929 191.464 28.9609C192.29 28.4289 192.934 27.6799 193.396 26.7139C193.858 25.7339 194.089 24.5999 194.089 23.3119ZM215.094 15.9409C214.898 15.9829 214.702 16.1439 214.506 16.4239C214.324 16.6899 214.233 17.1659 214.233 17.8519V30.9769L203.481 18.4399V28.4989C203.481 29.1709 203.6 29.6469 203.838 29.9269C204.076 30.1929 204.307 30.3469 204.531 30.3889H201.57C201.766 30.3469 201.962 30.1929 202.158 29.9269C202.368 29.6469 202.473 29.1639 202.473 28.4779V17.9779C202.473 17.5019 202.312 17.0679 201.99 16.6759C201.668 16.2839 201.262 16.0389 200.772 15.9409H203.376L213.225 27.4279V17.8519C213.225 16.7739 212.861 16.1369 212.133 15.9409H215.094Z" fill="#E4A97E"/>
<defs>
<clipPath id="clip0_7715_2046">
<rect width="35" height="42.7778" fill="white"/>
</clipPath>
</defs>
</svg>
