<svg width="42" height="39" viewBox="0 0 42 39" fill="none" xmlns="http://www.w3.org/2000/svg">
<path d="M41.5833 0.388917L2 0.388916L2 19.3889L2.59375 1.60686L41.5833 0.388917Z" fill="#E4A97E"/>
<path d="M0.416668 0.388917L40 0.388916L40 19.3889L39.4063 1.60686L0.416668 0.388917Z" fill="#E4A97E"/>
<path d="M14.6557 13.7911L15.4021 13.0447L27.3443 24.9869L26.598 25.7333L14.6557 13.7911Z" fill="#E4A97E"/>
<path d="M15.4023 25.7332L14.6559 24.9868L26.5981 13.0446L27.3445 13.791L15.4023 25.7332Z" fill="#E4A97E"/>
<path d="M41.5833 38.3889L2 38.3889L2 19.3889L2.59375 37.171L41.5833 38.3889Z" fill="#E4A97E"/>
<path d="M0.416668 38.3889L40 38.3889L40 19.3889L39.4063 37.171L0.416668 38.3889Z" fill="#E4A97E"/>
</svg>
