<svg width="42" height="39" viewBox="0 0 42 39" fill="none" xmlns="http://www.w3.org/2000/svg">
<path d="M41.5833 0.388917L2 0.388916L2 19.3889L2.59375 1.60686L41.5833 0.388917Z" fill="#E4A97E"/>
<path d="M0.416668 0.388917L40 0.388916L40 19.3889L39.4063 1.60686L0.416668 0.388917Z" fill="#E4A97E"/>
<path d="M12.5555 24.9517V23.8962H29.4444V24.9517H12.5555ZM12.5555 19.9167V18.8612H29.4444V19.9167H12.5555ZM12.5555 14.8817V13.8262H29.4444V14.8817H12.5555Z" fill="#E4A97E"/>
<path d="M41.5833 38.3889L2 38.3889L2 19.3889L2.59375 37.171L41.5833 38.3889Z" fill="#E4A97E"/>
<path d="M0.416668 38.3889L40 38.3889L40 19.3889L39.4063 37.171L0.416668 38.3889Z" fill="#E4A97E"/>
</svg>
