<svg width="35" height="43" viewBox="0 0 35 43" fill="none" xmlns="http://www.w3.org/2000/svg">
<g clip-path="url(#clip0_7715_1935)">
<path d="M14.0809 13.0127C13.4206 12.9911 12.7815 13.1641 12.2063 13.5099C11.269 14.0935 10.14 14.9798 9.11747 16.2767C6.43335 19.692 6.45466 23.5613 6.49726 24.7285C6.53987 25.6364 6.92331 30.6081 11.0773 34.1963C14.3153 36.9847 17.8941 37.2873 19.0657 37.3306C19.9178 37.3738 24.3701 37.4603 28.1193 33.9801C32.0176 30.3703 32.2094 25.6148 32.2307 24.7934C32.2733 24.1017 32.2946 23.1938 32.1242 22.1346C31.975 21.1835 31.7194 20.3838 31.4851 19.7569C30.846 19.411 29.93 18.849 29.0353 17.9195C28.098 16.9468 27.5441 15.9525 27.2246 15.2608C27.1607 14.9798 27.0542 14.5907 26.7985 14.18C26.3725 13.4883 25.8186 13.1424 25.5204 12.9911C26.0743 12.9047 27.2885 12.8182 28.6092 13.4234C29.3122 13.7477 29.8235 14.18 30.1643 14.5042C30.2282 14.3313 30.3348 13.9638 30.2708 13.5315C30.2069 13.0127 29.9726 12.6453 29.8448 12.494C30.2708 12.7101 31.762 13.5099 32.5076 15.304C32.9976 16.5145 32.955 17.5953 32.891 18.1141C33.4023 18.9139 34.0414 20.1027 34.4887 21.6375C34.9148 23.0641 35.0213 24.3395 35.0213 25.2689C35.0639 26.3281 35.213 32.0779 30.8673 36.747C25.6482 42.3455 18.4267 41.5457 17.6598 41.4376C18.1071 41.697 18.6823 41.9564 19.364 42.1509C21.0682 42.6265 22.538 42.3671 23.3688 42.1509C21.5581 42.6697 18.1284 43.3398 14.2514 42.1293C5.32562 39.3192 2.81193 29.203 2.64151 28.5329C2.79063 29.6786 3.02495 30.9107 3.34449 32.2076C3.83445 34.3044 4.47352 36.1417 5.1126 37.7197C4.09008 36.5956 2.72672 34.8015 1.64029 32.3157C0.362142 29.3976 0.0639075 26.8037 0 25.1609C0.0213025 23.3667 0.298235 20.2324 1.91722 16.8388C4.21789 11.9968 7.88192 9.48936 9.47961 8.51665C9.35179 8.51665 9.18137 8.47342 8.98965 8.38695C8.60621 8.21402 8.39318 7.93302 8.30797 7.80332C8.90444 7.71686 9.65003 7.54393 10.4808 7.2197C11.3116 6.89546 11.972 6.50637 12.462 6.18213C11.1412 5.64174 9.62873 4.95003 8.03104 3.99893C6.49726 3.09107 5.17651 2.13997 4.11138 1.27534L6.19903 2.42098L4.60134 1.01595C5.9647 1.94543 7.6902 2.93976 9.75654 3.80439C11.1838 4.40963 12.5259 4.84195 13.7188 5.16619C13.0584 4.79872 12.2702 4.27994 11.482 3.56662C10.1613 2.39936 9.30919 1.14564 8.79793 0.216159C9.35179 0.713323 9.92696 1.18887 10.4808 1.68604L9.03226 0C10.2252 1.18887 11.9081 2.61552 14.1236 3.84762C15.3804 4.53933 16.5733 5.05811 17.6172 5.4472C18.5332 5.59851 19.4279 5.74982 20.3439 5.90113C20.6208 5.94436 21.1108 6.07406 21.5794 6.46314C21.7711 6.61445 21.9203 6.78738 22.0268 6.91707C22.1546 7.09 22.325 7.28454 22.5167 7.47909C22.8363 7.80332 23.1345 8.06271 23.4327 8.25726L27.7358 8.19241C28.0128 8.19241 28.2045 8.4518 28.1406 8.71119C27.9276 9.57582 27.4802 10.8079 26.3938 11.7806C26.1382 12.0184 25.8612 12.213 25.6056 12.3643C25.776 12.1265 26.0103 11.7806 26.1595 11.3051C26.266 10.9592 26.3299 10.6566 26.3512 10.4188C26.1808 10.5918 25.989 10.7863 25.7121 10.9592C25.3074 11.2402 24.9026 11.3916 24.6257 11.478C24.7748 11.2835 24.9239 11.0241 25.073 10.7431C25.2222 10.4621 25.3287 10.1811 25.4139 9.94329C25.1156 9.96491 24.6896 10.0081 24.1783 10.2243C23.6245 10.4405 23.241 10.7431 23.0067 10.9592C23.0067 10.7647 23.0493 10.5269 23.1345 10.2459C23.1984 10.0514 23.2836 9.87845 23.3475 9.74875C23.2197 9.66229 23.0919 9.59744 22.9428 9.51098C22.4102 9.2732 21.9203 9.2732 21.6007 9.29482C21.2812 9.29482 20.4291 9.35966 19.5983 9.96491C19.3001 10.1811 19.0657 10.4188 18.874 10.6566C18.4693 11.1754 18.4906 11.932 18.9379 12.4291V12.4507C19.1296 12.6453 19.3427 12.7966 19.5344 12.883C20.1948 13.2073 20.9617 13.1424 21.6007 12.7966C21.622 12.775 21.6433 12.775 21.6646 12.7534C21.9203 12.602 22.112 12.4291 22.2398 12.2778C22.2611 12.4291 22.2824 12.7317 22.1759 13.0992C22.0907 13.4018 21.9416 13.618 21.8351 13.7261C22.0907 13.7693 22.3889 13.7909 22.7298 13.7909C23.3262 13.7693 23.7949 13.618 24.1144 13.4883C23.9014 13.9638 23.4327 14.8933 22.4315 15.6715C21.6646 16.2767 20.8977 16.5577 20.4291 16.6658C20.5995 16.4064 20.7912 16.039 20.919 15.5634C20.9617 15.4337 20.983 15.304 21.0043 15.1959C21.0682 14.8717 20.9403 14.5475 20.6847 14.3313C20.3865 14.0719 20.0669 14.0503 19.9604 14.0287H18.1923C17.5746 14.0287 16.9781 14.1152 16.3816 14.2881C16.0621 14.3745 15.7212 14.461 15.3591 14.5259C14.4644 14.6988 13.6549 14.7852 12.9732 14.8069C13.4632 14.7204 14.3153 14.5042 15.1248 13.8558C15.423 13.618 15.6573 13.3586 15.8278 13.1424L14.0809 13.0127Z" fill="#D0221A"/>
</g>
<defs>
<clipPath id="clip0_7715_1935">
<rect width="35" height="42.7778" fill="white"/>
</clipPath>
</defs>
</svg>
